<svg width="366" height="366" viewBox="0 0 366 366" fill="none" xmlns="http://www.w3.org/2000/svg">
<mask id="path-1-outside-1_130_370" maskUnits="userSpaceOnUse" x="-0.598633" y="-0.598877" width="367" height="367" fill="black">
<rect fill="white" x="-0.598633" y="-0.598877" width="367" height="367"/>
<path d="M205.761 16.9158L217.311 7.39917L227.225 21.3171L239.918 13.3777L247.945 28.4919L261.551 22.281L267.544 38.3025L281.859 33.907L285.699 50.5896L300.457 48.1082L302.081 65.1404L317.031 64.6091L316.439 81.6951L331.325 83.115L328.502 99.991L343.08 103.35L338.074 119.702L352.093 124.946L344.994 140.493L358.219 147.517L349.146 162.021L361.328 170.715L350.449 183.899L361.401 194.094L348.886 205.76L358.403 217.309L344.484 227.224L352.425 239.918L337.31 247.945L343.521 261.551L327.495 267.545L331.877 281.859L315.212 285.699L317.694 300.457L300.661 302.081L301.193 317.031L284.101 316.439L282.669 331.325L265.811 328.502L262.452 343.079L246.1 338.073L240.856 352.094L225.295 344.995L218.285 358.219L203.779 349.145L195.088 361.328L181.899 350.446L171.689 361.401L160.039 348.886L148.493 358.403L138.577 344.484L125.885 352.425L117.855 337.307L104.233 343.521L98.2539 327.496L83.9434 331.877L80.1025 315.212L65.3457 317.693L63.7207 300.661L48.7529 301.193L49.3584 284.1L34.46 282.669L37.2969 265.809L22.7236 262.452L27.7285 246.099L13.71 240.856L20.8066 225.295L7.58398 218.285L16.6562 203.779L4.47461 195.088L15.3555 181.899L4.40137 171.689L16.915 160.039L7.39941 148.493L21.3174 138.577L13.3779 125.885L28.4941 117.855L22.2812 104.233L38.3018 98.2546L33.9072 83.9431L50.5898 80.1013L48.1094 65.3455L65.1406 63.7205L64.6094 48.7527L81.6953 49.3591L83.1152 34.4587L99.9922 37.2966L103.351 22.7234L119.702 27.7283L124.946 13.7097L140.493 20.8074L147.518 7.58374L162.022 16.656L170.715 4.47437L183.898 15.3523L194.095 4.40112L205.761 16.9158Z"/>
</mask>
<path d="M205.761 16.9158L217.311 7.39917L227.225 21.3171L239.918 13.3777L247.945 28.4919L261.551 22.281L267.544 38.3025L281.859 33.907L285.699 50.5896L300.457 48.1082L302.081 65.1404L317.031 64.6091L316.439 81.6951L331.325 83.115L328.502 99.991L343.08 103.35L338.074 119.702L352.093 124.946L344.994 140.493L358.219 147.517L349.146 162.021L361.328 170.715L350.449 183.899L361.401 194.094L348.886 205.76L358.403 217.309L344.484 227.224L352.425 239.918L337.31 247.945L343.521 261.551L327.495 267.545L331.877 281.859L315.212 285.699L317.694 300.457L300.661 302.081L301.193 317.031L284.101 316.439L282.669 331.325L265.811 328.502L262.452 343.079L246.1 338.073L240.856 352.094L225.295 344.995L218.285 358.219L203.779 349.145L195.088 361.328L181.899 350.446L171.689 361.401L160.039 348.886L148.493 358.403L138.577 344.484L125.885 352.425L117.855 337.307L104.233 343.521L98.2539 327.496L83.9434 331.877L80.1025 315.212L65.3457 317.693L63.7207 300.661L48.7529 301.193L49.3584 284.1L34.46 282.669L37.2969 265.809L22.7236 262.452L27.7285 246.099L13.71 240.856L20.8066 225.295L7.58398 218.285L16.6562 203.779L4.47461 195.088L15.3555 181.899L4.40137 171.689L16.915 160.039L7.39941 148.493L21.3174 138.577L13.3779 125.885L28.4941 117.855L22.2812 104.233L38.3018 98.2546L33.9072 83.9431L50.5898 80.1013L48.1094 65.3455L65.1406 63.7205L64.6094 48.7527L81.6953 49.3591L83.1152 34.4587L99.9922 37.2966L103.351 22.7234L119.702 27.7283L124.946 13.7097L140.493 20.8074L147.518 7.58374L162.022 16.656L170.715 4.47437L183.898 15.3523L194.095 4.40112L205.761 16.9158Z" fill="#1D5E3D"/>
<path d="M205.761 16.9158L203.566 18.9614L205.491 21.0256L207.668 19.2311L205.761 16.9158ZM217.311 7.39917L219.754 5.65864L217.887 3.03723L215.403 5.08387L217.311 7.39917ZM227.225 21.3171L224.781 23.0577L226.42 25.3588L228.815 23.8606L227.225 21.3171ZM239.918 13.3777L242.567 11.9705L241.057 9.12668L238.327 10.8342L239.918 13.3777ZM247.945 28.4919L245.296 29.8991L246.621 32.3943L249.191 31.221L247.945 28.4919ZM261.551 22.281L264.361 21.2299L263.233 18.2153L260.305 19.5519L261.551 22.281ZM267.544 38.3025L264.734 39.3536L265.724 41.9996L268.424 41.1703L267.544 38.3025ZM281.859 33.907L284.783 33.2341L284.06 30.0931L280.979 31.0391L281.859 33.907ZM285.699 50.5896L282.776 51.2625L283.41 54.0167L286.197 53.5481L285.699 50.5896ZM300.457 48.1082L303.443 47.8234L303.138 44.6153L299.96 45.1497L300.457 48.1082ZM302.081 65.1404L299.095 65.4251L299.363 68.2389L302.188 68.1385L302.081 65.1404ZM317.031 64.6091L320.029 64.713L320.141 61.4967L316.925 61.611L317.031 64.6091ZM316.439 81.6951L313.441 81.5912L313.344 84.4134L316.155 84.6815L316.439 81.6951ZM331.325 83.115L334.284 83.61L334.815 80.4343L331.61 80.1285L331.325 83.115ZM328.502 99.991L325.543 99.496L325.077 102.28L327.828 102.914L328.502 99.991ZM343.08 103.35L345.949 104.229L346.891 101.15L343.754 100.427L343.08 103.35ZM338.074 119.702L335.206 118.824L334.379 121.523L337.023 122.512L338.074 119.702ZM352.093 124.946L354.822 126.192L356.159 123.264L353.144 122.136L352.093 124.946ZM344.994 140.493L342.265 139.247L341.092 141.817L343.587 143.142L344.994 140.493ZM358.219 147.517L360.762 149.108L362.47 146.378L359.626 144.868L358.219 147.517ZM349.146 162.021L346.602 160.43L345.105 162.823L347.403 164.463L349.146 162.021ZM361.328 170.715L363.642 172.624L365.69 170.142L363.071 168.273L361.328 170.715ZM350.449 183.899L348.135 181.99L346.337 184.17L348.405 186.095L350.449 183.899ZM361.401 194.094L363.447 196.289L365.803 194.093L363.445 191.899L361.401 194.094ZM348.886 205.76L346.84 203.566L344.776 205.49L346.571 207.668L348.886 205.76ZM358.403 217.309L360.144 219.753L362.765 217.885L360.718 215.401L358.403 217.309ZM344.484 227.224L342.744 224.781L340.443 226.42L341.941 228.815L344.484 227.224ZM352.425 239.918L353.832 242.567L356.676 241.057L354.968 238.327L352.425 239.918ZM337.31 247.945L335.902 245.296L333.407 246.621L334.581 249.191L337.31 247.945ZM343.521 261.551L344.572 264.36L347.587 263.233L346.25 260.305L343.521 261.551ZM327.495 267.545L326.444 264.735L323.8 265.724L324.626 268.423L327.495 267.545ZM331.877 281.859L332.551 284.783L335.688 284.06L334.746 280.981L331.877 281.859ZM315.212 285.699L314.538 282.776L311.785 283.41L312.253 286.197L315.212 285.699ZM317.694 300.457L317.979 303.443L321.187 303.137L320.653 299.959L317.694 300.457ZM300.661 302.081L300.376 299.094L297.562 299.363L297.663 302.188L300.661 302.081ZM301.193 317.031L301.09 320.029L304.306 320.141L304.191 316.924L301.193 317.031ZM284.101 316.439L284.204 313.441L281.384 313.343L281.114 316.152L284.101 316.439ZM282.669 331.325L282.173 334.284L285.347 334.815L285.655 331.612L282.669 331.325ZM265.811 328.502L266.306 325.543L263.521 325.077L262.887 327.828L265.811 328.502ZM262.452 343.079L261.574 345.947L264.653 346.89L265.376 343.752L262.452 343.079ZM246.1 338.073L246.978 335.204L244.278 334.378L243.29 337.022L246.1 338.073ZM240.856 352.094L239.611 354.823L242.539 356.159L243.666 353.144L240.856 352.094ZM225.295 344.995L226.54 342.265L223.968 341.092L222.644 343.59L225.295 344.995ZM218.285 358.219L216.694 360.762L219.426 362.471L220.936 359.624L218.285 358.219ZM203.779 349.145L205.37 346.602L202.977 345.105L201.337 347.403L203.779 349.145ZM195.088 361.328L193.179 363.642L195.661 365.69L197.53 363.07L195.088 361.328ZM181.899 350.446L183.809 348.132L181.63 346.335L179.705 348.401L181.899 350.446ZM171.689 361.401L169.494 363.445L171.688 365.803L173.884 363.447L171.689 361.401ZM160.039 348.886L162.235 346.842L160.31 344.775L158.131 346.572L160.039 348.886ZM148.493 358.403L146.05 360.144L147.917 362.765L150.401 360.718L148.493 358.403ZM138.577 344.484L141.021 342.743L139.381 340.442L136.986 341.941L138.577 344.484ZM125.885 352.425L123.235 353.832L124.746 356.676L127.476 354.968L125.885 352.425ZM117.855 337.307L120.505 335.9L119.18 333.406L116.61 334.578L117.855 337.307ZM104.233 343.521L101.423 344.57L102.548 347.587L105.478 346.251L104.233 343.521ZM98.2539 327.496L101.065 326.447L100.077 323.8L97.3757 324.627L98.2539 327.496ZM83.9434 331.877L81.02 332.55L81.743 335.688L84.8215 334.745L83.9434 331.877ZM80.1025 315.212L83.0259 314.538L82.3914 311.785L79.6051 312.253L80.1025 315.212ZM65.3457 317.693L62.3593 317.978L62.6653 321.186L65.8432 320.652L65.3457 317.693ZM63.7207 300.661L66.7071 300.376L66.4387 297.562L63.6141 297.663L63.7207 300.661ZM48.7529 301.193L45.7548 301.087L45.6408 304.306L48.8595 304.191L48.7529 301.193ZM49.3584 284.1L52.3565 284.207L52.4565 281.384L49.6454 281.114L49.3584 284.1ZM34.46 282.669L31.5016 282.171L30.9671 285.347L34.173 285.655L34.46 282.669ZM37.2969 265.809L40.2553 266.307L40.7242 263.52L37.9704 262.886L37.2969 265.809ZM22.7236 262.452L19.855 261.574L18.9127 264.653L22.0501 265.375L22.7236 262.452ZM27.7285 246.099L30.5972 246.977L31.4232 244.278L28.7795 243.289L27.7285 246.099ZM13.71 240.856L10.9804 239.611L9.64533 242.539L12.659 243.666L13.71 240.856ZM20.8066 225.295L23.5362 226.539L24.7089 223.968L22.2118 222.644L20.8066 225.295ZM7.58398 218.285L5.04047 216.694L3.3318 219.426L6.17883 220.935L7.58398 218.285ZM16.6562 203.779L19.1998 205.37L20.6966 202.976L18.3987 201.337L16.6562 203.779ZM4.47461 195.088L2.16052 193.178L0.112584 195.661L2.73219 197.53L4.47461 195.088ZM15.3555 181.899L17.6696 183.808L19.4667 181.63L17.4009 179.705L15.3555 181.899ZM4.40137 171.689L2.35714 169.493L6.62804e-05 171.688L2.3559 173.884L4.40137 171.689ZM16.915 160.039L18.9593 162.235L21.0262 160.31L19.2301 158.131L16.915 160.039ZM7.39941 148.493L5.65865 146.05L3.03736 147.917L5.08434 150.401L7.39941 148.493ZM21.3174 138.577L23.0581 141.02L25.3589 139.381L23.8608 136.986L21.3174 138.577ZM13.3779 125.885L11.9706 123.235L9.12691 124.746L10.8345 127.475L13.3779 125.885ZM28.4941 117.855L29.9014 120.505L32.3956 119.18L31.2236 116.61L28.4941 117.855ZM22.2812 104.233L21.2324 101.422L18.2155 102.548L19.5517 105.478L22.2812 104.233ZM38.3018 98.2546L39.3506 101.065L41.9995 100.077L41.1696 97.374L38.3018 98.2546ZM33.9072 83.9431L33.234 81.0196L30.0934 81.7429L31.0394 84.8237L33.9072 83.9431ZM50.5898 80.1013L51.2631 83.0248L54.0168 82.3907L53.5483 79.604L50.5898 80.1013ZM48.1094 65.3455L47.8244 62.359L44.6167 62.6651L45.1509 65.8428L48.1094 65.3455ZM65.1406 63.7205L65.4256 66.7069L68.239 66.4385L68.1387 63.614L65.1406 63.7205ZM64.6094 48.7527L64.7158 45.7546L61.497 45.6403L61.6113 48.8591L64.6094 48.7527ZM81.6953 49.3591L81.5889 52.3572L84.4136 52.4575L84.6818 49.6437L81.6953 49.3591ZM83.1152 34.4587L83.6127 31.5003L80.4345 30.9659L80.1288 34.1741L83.1152 34.4587ZM99.9922 37.2966L99.4947 40.2551L102.281 40.7236L102.916 37.9703L99.9922 37.2966ZM103.351 22.7234L104.229 19.8548L101.15 18.9125L100.427 22.0497L103.351 22.7234ZM119.702 27.7283L118.824 30.5969L121.523 31.423L122.512 28.7794L119.702 27.7283ZM124.946 13.7097L126.192 10.9807L123.264 9.64394L122.136 12.6586L124.946 13.7097ZM140.493 20.8074L139.247 23.5364L141.817 24.7097L143.143 22.2147L140.493 20.8074ZM147.518 7.58374L149.108 5.04027L146.379 3.3329L144.868 6.17637L147.518 7.58374ZM162.022 16.656L160.432 19.1995L162.825 20.6964L164.464 18.3986L162.022 16.656ZM170.715 4.47437L172.624 2.16037L170.142 0.112319L168.273 2.73182L170.715 4.47437ZM183.898 15.3523L181.989 17.6663L184.169 19.4646L186.094 17.3966L183.898 15.3523ZM194.095 4.40112L196.289 2.35551L194.093 4.57764e-05L191.899 2.35683L194.095 4.40112ZM205.761 16.9158L207.668 19.2311L219.218 9.71447L217.311 7.39917L215.403 5.08387L203.853 14.6005L205.761 16.9158ZM217.311 7.39917L214.867 9.1397L224.781 23.0577L227.225 21.3171L229.668 19.5766L219.754 5.65864L217.311 7.39917ZM227.225 21.3171L228.815 23.8606L241.509 15.9211L239.918 13.3777L238.327 10.8342L225.634 18.7737L227.225 21.3171ZM239.918 13.3777L237.268 14.7849L245.296 29.8991L247.945 28.4919L250.595 27.0848L242.567 11.9705L239.918 13.3777ZM247.945 28.4919L249.191 31.221L262.797 25.0101L261.551 22.281L260.305 19.5519L246.699 25.7629L247.945 28.4919ZM261.551 22.281L258.741 23.3321L264.734 39.3536L267.544 38.3025L270.354 37.2514L264.361 21.2299L261.551 22.281ZM267.544 38.3025L268.424 41.1703L282.74 36.7748L281.859 33.907L280.979 31.0391L266.663 35.4346L267.544 38.3025ZM281.859 33.907L278.936 34.5799L282.776 51.2625L285.699 50.5896L288.623 49.9167L284.783 33.2341L281.859 33.907ZM285.699 50.5896L286.197 53.5481L300.954 51.0666L300.457 48.1082L299.96 45.1497L285.202 47.6311L285.699 50.5896ZM300.457 48.1082L297.471 48.3929L299.095 65.4251L302.081 65.1404L305.068 64.8556L303.443 47.8234L300.457 48.1082ZM302.081 65.1404L302.188 68.1385L317.138 67.6072L317.031 64.6091L316.925 61.611L301.975 62.1423L302.081 65.1404ZM317.031 64.6091L314.033 64.5053L313.441 81.5912L316.439 81.6951L319.438 81.7989L320.029 64.713L317.031 64.6091ZM316.439 81.6951L316.155 84.6815L331.04 86.1014L331.325 83.115L331.61 80.1285L316.724 78.7086L316.439 81.6951ZM331.325 83.115L328.366 82.62L325.543 99.496L328.502 99.991L331.461 100.486L334.284 83.61L331.325 83.115ZM328.502 99.991L327.828 102.914L342.406 106.274L343.08 103.35L343.754 100.427L329.176 97.0676L328.502 99.991ZM343.08 103.35L340.211 102.472L335.206 118.824L338.074 119.702L340.943 120.58L345.949 104.229L343.08 103.35ZM338.074 119.702L337.023 122.512L351.042 127.756L352.093 124.946L353.144 122.136L339.125 116.892L338.074 119.702ZM352.093 124.946L349.364 123.7L342.265 139.247L344.994 140.493L347.723 141.739L354.822 126.192L352.093 124.946ZM344.994 140.493L343.587 143.142L356.811 150.167L358.219 147.517L359.626 144.868L346.401 137.843L344.994 140.493ZM358.219 147.517L355.675 145.926L346.602 160.43L349.146 162.021L351.689 163.612L360.762 149.108L358.219 147.517ZM349.146 162.021L347.403 164.463L359.586 173.157L361.328 170.715L363.071 168.273L350.888 159.579L349.146 162.021ZM361.328 170.715L359.014 168.805L348.135 181.99L350.449 183.899L352.763 185.808L363.642 172.624L361.328 170.715ZM350.449 183.899L348.405 186.095L359.357 196.29L361.401 194.094L363.445 191.899L352.493 181.703L350.449 183.899ZM361.401 194.094L359.356 191.9L346.84 203.566L348.886 205.76L350.931 207.955L363.447 196.289L361.401 194.094ZM348.886 205.76L346.571 207.668L356.088 219.217L358.403 217.309L360.718 215.401L351.201 203.853L348.886 205.76ZM358.403 217.309L356.663 214.866L342.744 224.781L344.484 227.224L346.225 229.668L360.144 219.753L358.403 217.309ZM344.484 227.224L341.941 228.815L349.881 241.509L352.425 239.918L354.968 238.327L347.028 225.633L344.484 227.224ZM352.425 239.918L351.018 237.268L335.902 245.296L337.31 247.945L338.717 250.595L353.832 242.567L352.425 239.918ZM337.31 247.945L334.581 249.191L340.792 262.797L343.521 261.551L346.25 260.305L340.039 246.699L337.31 247.945ZM343.521 261.551L342.471 258.741L326.444 264.735L327.495 267.545L328.546 270.355L344.572 264.36L343.521 261.551ZM327.495 267.545L324.626 268.423L329.008 282.737L331.877 281.859L334.746 280.981L330.364 266.667L327.495 267.545ZM331.877 281.859L331.203 278.936L314.538 282.776L315.212 285.699L315.885 288.622L332.551 284.783L331.877 281.859ZM315.212 285.699L312.253 286.197L314.736 300.954L317.694 300.457L320.653 299.959L318.17 285.201L315.212 285.699ZM317.694 300.457L317.41 297.47L300.376 299.094L300.661 302.081L300.946 305.067L317.979 303.443L317.694 300.457ZM300.661 302.081L297.663 302.188L298.195 317.138L301.193 317.031L304.191 316.924L303.659 301.974L300.661 302.081ZM301.193 317.031L301.297 314.033L284.204 313.441L284.101 316.439L283.997 319.437L301.09 320.029L301.193 317.031ZM284.101 316.439L281.114 316.152L279.683 331.038L282.669 331.325L285.655 331.612L287.087 316.726L284.101 316.439ZM282.669 331.325L283.164 328.366L266.306 325.543L265.811 328.502L265.315 331.461L282.173 334.284L282.669 331.325ZM265.811 328.502L262.887 327.828L259.529 342.405L262.452 343.079L265.376 343.752L268.734 329.175L265.811 328.502ZM262.452 343.079L263.33 340.21L246.978 335.204L246.1 338.073L245.221 340.942L261.574 345.947L262.452 343.079ZM246.1 338.073L243.29 337.022L238.047 351.043L240.856 352.094L243.666 353.144L248.91 339.124L246.1 338.073ZM240.856 352.094L242.102 349.364L226.54 342.265L225.295 344.995L224.05 347.724L239.611 354.823L240.856 352.094ZM225.295 344.995L222.644 343.59L215.635 356.813L218.285 358.219L220.936 359.624L227.946 346.4L225.295 344.995ZM218.285 358.219L219.876 355.675L205.37 346.602L203.779 349.145L202.188 351.689L216.694 360.762L218.285 358.219ZM203.779 349.145L201.337 347.403L192.646 359.586L195.088 361.328L197.53 363.07L206.221 350.888L203.779 349.145ZM195.088 361.328L196.997 359.014L183.809 348.132L181.899 350.446L179.99 352.76L193.179 363.642L195.088 361.328ZM181.899 350.446L179.705 348.401L169.495 359.356L171.689 361.401L173.884 363.447L184.094 352.491L181.899 350.446ZM171.689 361.401L173.885 359.357L162.235 346.842L160.039 348.886L157.843 350.931L169.494 363.445L171.689 361.401ZM160.039 348.886L158.131 346.572L146.585 356.088L148.493 358.403L150.401 360.718L161.947 351.201L160.039 348.886ZM148.493 358.403L150.937 356.662L141.021 342.743L138.577 344.484L136.134 346.225L146.05 360.144L148.493 358.403ZM138.577 344.484L136.986 341.941L124.294 349.881L125.885 352.425L127.476 354.968L140.168 347.027L138.577 344.484ZM125.885 352.425L128.534 351.017L120.505 335.9L117.855 337.307L115.206 338.715L123.235 353.832L125.885 352.425ZM117.855 337.307L116.61 334.578L102.988 340.792L104.233 343.521L105.478 346.251L119.101 340.037L117.855 337.307ZM104.233 343.521L107.044 342.473L101.065 326.447L98.2539 327.496L95.4432 328.545L101.423 344.57L104.233 343.521ZM98.2539 327.496L97.3757 324.627L83.0652 329.008L83.9434 331.877L84.8215 334.745L99.1321 330.364L98.2539 327.496ZM83.9434 331.877L86.8667 331.203L83.0259 314.538L80.1025 315.212L77.1792 315.885L81.02 332.55L83.9434 331.877ZM80.1025 315.212L79.6051 312.253L64.8482 314.735L65.3457 317.693L65.8432 320.652L80.6 318.17L80.1025 315.212ZM65.3457 317.693L68.3321 317.408L66.7071 300.376L63.7207 300.661L60.7343 300.946L62.3593 317.978L65.3457 317.693ZM63.7207 300.661L63.6141 297.663L48.6463 298.195L48.7529 301.193L48.8595 304.191L63.8273 303.659L63.7207 300.661ZM48.7529 301.193L51.751 301.299L52.3565 284.207L49.3584 284.1L46.3603 283.994L45.7548 301.087L48.7529 301.193ZM49.3584 284.1L49.6454 281.114L34.7469 279.682L34.46 282.669L34.173 285.655L49.0714 287.087L49.3584 284.1ZM34.46 282.669L37.4184 283.167L40.2553 266.307L37.2969 265.809L34.3385 265.312L31.5016 282.171L34.46 282.669ZM37.2969 265.809L37.9704 262.886L23.3971 259.528L22.7236 262.452L22.0501 265.375L36.6234 268.733L37.2969 265.809ZM22.7236 262.452L25.5923 263.33L30.5972 246.977L27.7285 246.099L24.8599 245.221L19.855 261.574L22.7236 262.452ZM27.7285 246.099L28.7795 243.289L14.7609 238.046L13.71 240.856L12.659 243.666L26.6776 248.909L27.7285 246.099ZM13.71 240.856L16.4395 242.101L23.5362 226.539L20.8066 225.295L18.0771 224.05L10.9804 239.611L13.71 240.856ZM20.8066 225.295L22.2118 222.644L8.98914 215.634L7.58398 218.285L6.17883 220.935L19.4015 227.945L20.8066 225.295ZM7.58398 218.285L10.1275 219.876L19.1998 205.37L16.6562 203.779L14.1127 202.188L5.04047 216.694L7.58398 218.285ZM16.6562 203.779L18.3987 201.337L6.21703 192.646L4.47461 195.088L2.73219 197.53L14.9138 206.221L16.6562 203.779ZM4.47461 195.088L6.7887 196.997L17.6696 183.808L15.3555 181.899L13.0414 179.99L2.16052 193.178L4.47461 195.088ZM15.3555 181.899L17.4009 179.705L6.44684 169.495L4.40137 171.689L2.3559 173.884L13.31 184.094L15.3555 181.899ZM4.40137 171.689L6.4456 173.885L18.9593 162.235L16.915 160.039L14.8708 157.843L2.35714 169.493L4.40137 171.689ZM16.915 160.039L19.2301 158.131L9.71449 146.585L7.39941 148.493L5.08434 150.401L14.6 161.947L16.915 160.039ZM7.39941 148.493L9.14018 150.936L23.0581 141.02L21.3174 138.577L19.5766 136.134L5.65865 146.05L7.39941 148.493ZM21.3174 138.577L23.8608 136.986L15.9213 124.294L13.3779 125.885L10.8345 127.475L18.774 140.168L21.3174 138.577ZM13.3779 125.885L14.7852 128.534L29.9014 120.505L28.4941 117.855L27.0868 115.206L11.9706 123.235L13.3779 125.885ZM28.4941 117.855L31.2236 116.61L25.0108 102.988L22.2812 104.233L19.5517 105.478L25.7646 119.1L28.4941 117.855ZM22.2812 104.233L23.3301 107.044L39.3506 101.065L38.3018 98.2546L37.2529 95.444L21.2324 101.422L22.2812 104.233ZM38.3018 98.2546L41.1696 97.374L36.7751 83.0625L33.9072 83.9431L31.0394 84.8237L35.4339 99.1352L38.3018 98.2546ZM33.9072 83.9431L34.5805 86.8666L51.2631 83.0248L50.5898 80.1013L49.9166 77.1778L33.234 81.0196L33.9072 83.9431ZM50.5898 80.1013L53.5483 79.604L51.0679 64.8481L48.1094 65.3455L45.1509 65.8428L47.6314 80.5986L50.5898 80.1013ZM48.1094 65.3455L48.3943 68.3319L65.4256 66.7069L65.1406 63.7205L64.8557 60.734L47.8244 62.359L48.1094 65.3455ZM65.1406 63.7205L68.1387 63.614L67.6075 48.6463L64.6094 48.7527L61.6113 48.8591L62.1425 63.8269L65.1406 63.7205ZM64.6094 48.7527L64.503 51.7508L81.5889 52.3572L81.6953 49.3591L81.8017 46.361L64.7158 45.7546L64.6094 48.7527ZM81.6953 49.3591L84.6818 49.6437L86.1017 34.7433L83.1152 34.4587L80.1288 34.1741L78.7088 49.0745L81.6953 49.3591ZM83.1152 34.4587L82.6178 37.4172L99.4947 40.2551L99.9922 37.2966L100.49 34.3382L83.6127 31.5003L83.1152 34.4587ZM99.9922 37.2966L102.916 37.9703L106.274 23.3971L103.351 22.7234L100.427 22.0497L97.0688 36.6229L99.9922 37.2966ZM103.351 22.7234L102.473 25.592L118.824 30.5969L119.702 27.7283L120.58 24.8596L104.229 19.8548L103.351 22.7234ZM119.702 27.7283L122.512 28.7794L127.756 14.7608L124.946 13.7097L122.136 12.6586L116.892 26.6772L119.702 27.7283ZM124.946 13.7097L123.7 16.4388L139.247 23.5364L140.493 20.8074L141.739 18.0783L126.192 10.9807L124.946 13.7097ZM140.493 20.8074L143.143 22.2147L150.167 8.99111L147.518 7.58374L144.868 6.17637L137.844 19.4L140.493 20.8074ZM147.518 7.58374L145.927 10.1272L160.432 19.1995L162.022 16.656L163.613 14.1125L149.108 5.04027L147.518 7.58374ZM162.022 16.656L164.464 18.3986L173.157 6.21691L170.715 4.47437L168.273 2.73182L159.58 14.9135L162.022 16.656ZM170.715 4.47437L168.806 6.78836L181.989 17.6663L183.898 15.3523L185.808 13.0383L172.624 2.16037L170.715 4.47437ZM183.898 15.3523L186.094 17.3966L196.29 6.44542L194.095 4.40112L191.899 2.35683L181.703 13.308L183.898 15.3523ZM194.095 4.40112L191.9 6.44674L203.566 18.9614L205.761 16.9158L207.955 14.8702L196.289 2.35551L194.095 4.40112Z" fill="white" mask="url(#path-1-outside-1_130_370)"/>
<path d="M183.365 349.328C275.024 349.328 349.328 275.024 349.328 183.365C349.328 91.7055 275.024 17.4011 183.365 17.4011C91.7058 17.4011 17.4014 91.7055 17.4014 183.365C17.4014 275.024 91.7058 349.328 183.365 349.328Z" fill="white" fill-opacity="0.95"/>
<path d="M149.154 65.3676L170.615 82.9777L183.752 63.8651C184.179 63.2465 185.102 63.2465 185.506 63.8651L198.104 82.9556L217.629 65.5444C218.462 64.8152 219.744 65.677 219.316 66.6934L208.204 94.4011H159.637L147.49 66.5387C147.062 65.5444 148.277 64.6385 149.132 65.3234L149.154 65.3676Z" fill="#1D5E3D"/>
</svg>
