<svg width="480" height="198" viewBox="0 0 480 198" fill="none" xmlns="http://www.w3.org/2000/svg">
<path d="M139.351 132.529H130.771C111.561 132.529 104.931 124.619 104.931 113.319V112.549C104.931 111.099 106.381 109.579 108.671 109.579C110.961 109.579 112.671 110.939 112.671 112.379V113.139C112.671 120.539 117.011 125.469 131.031 125.469H139.531C156.111 125.469 158.571 120.109 158.571 113.309V111.099C158.571 103.789 155.081 100.219 134.001 99.7892C114.281 99.3692 105.521 96.2992 105.521 83.3792V81.4192C105.521 70.0292 111.641 63.2292 130.431 63.2292H150.751C152.111 63.2292 153.641 64.7592 153.641 66.8892C153.641 69.0192 152.111 70.3792 150.751 70.3792H130.261C117.511 70.3792 113.171 73.9492 113.171 81.0892V83.2092C113.171 90.6892 117.341 92.8193 138.501 93.1593C159.751 93.5893 166.301 99.1992 166.301 110.839V113.559C166.301 124.439 161.541 132.519 139.351 132.519V132.529Z" fill="#005D36"/>
<path d="M241.691 133.469C239.391 133.469 238.291 132.699 237.861 131.259L231.741 116.039H207.261C205.811 116.039 204.281 114.759 204.281 112.469C204.281 110.349 205.811 108.899 207.261 108.899H228.851L213.551 70.2192C213.381 69.7092 213.041 69.4492 212.791 69.4492C212.541 69.4492 212.281 69.7092 212.111 70.2192L187.801 131.429C187.291 132.789 186.181 133.469 184.061 133.469C181.511 133.469 180.321 132.189 180.321 130.579C180.321 130.239 180.401 129.819 180.571 129.389L205.141 67.0792C205.991 64.8692 208.121 62.9092 211.011 62.9092H214.581C217.301 62.9092 219.591 64.8692 220.451 66.9892L245.191 129.469C245.361 129.809 245.441 130.149 245.441 130.489C245.441 132.109 243.911 133.469 241.701 133.469H241.691Z" fill="#005D36"/>
<path d="M322.871 133.469C320.661 133.469 319.301 131.939 319.301 130.489V72.5992C319.301 72.3492 319.221 72.1792 319.051 72.1792C318.971 72.1792 318.791 72.3492 318.621 72.6892L298.731 124.709C298.221 126.159 296.611 127.169 294.311 127.169C292.011 127.169 290.481 126.069 289.981 124.619L270.001 72.5092C269.921 72.2592 269.741 72.0892 269.661 72.0892C269.491 72.0892 269.411 72.2592 269.411 72.5992V130.489C269.411 131.939 267.961 133.469 265.671 133.469C263.551 133.469 262.181 131.939 262.181 130.489V68.2692C262.181 65.5492 263.801 62.9092 267.281 62.9092H269.241C272.561 62.9092 274.341 64.9492 275.361 67.5792L293.721 114.759C293.891 115.189 294.141 115.439 294.401 115.439C294.571 115.439 294.821 115.189 294.991 114.759L313.271 68.0092C314.461 64.9492 316.251 62.9092 318.881 62.9092H321.261C324.581 62.9092 326.531 65.0292 326.531 68.2692V130.489C326.531 131.939 325.081 133.469 322.871 133.469Z" fill="#005D36"/>
<path d="M381.771 107.539H365.871C364.421 107.539 362.811 106.099 362.811 103.799C362.811 101.499 364.431 100.139 365.871 100.139H381.001C391.371 100.139 395.541 96.4793 395.541 88.6593V82.5393C395.541 74.7993 391.541 70.6393 381.091 70.6393H356.271C355.171 70.6393 354.311 71.4893 354.311 72.5993V130.399C354.311 131.849 353.041 133.459 350.651 133.459C348.261 133.459 346.911 131.839 346.911 130.399V69.4493C346.911 65.8793 349.211 63.2393 352.951 63.2393H381.771C397.841 63.2393 403.021 70.2993 403.021 81.9393V89.2493C403.021 100.299 397.661 107.529 381.771 107.529V107.539Z" fill="#005D36"/>
<path d="M450.871 132.789H446.791C427.321 132.789 418.741 124.029 418.741 104.819V91.0491C418.741 71.4091 427.751 63.0791 446.791 63.0791H450.871C469.911 63.0791 479.091 71.9191 479.091 91.0491V104.819C479.091 124.029 470.341 132.789 450.871 132.789ZM471.611 91.0491C471.611 76.0891 464.381 70.6491 450.871 70.6491H446.791C433.271 70.6491 425.961 76.0891 425.961 91.0491V104.819C425.961 119.869 433.271 125.389 446.791 125.389H450.871C464.391 125.389 471.611 119.859 471.611 104.819V91.0491Z" fill="#005D36"/>
<path d="M4.3507 128.779V86.9993C4.3507 72.8693 4.4207 58.8993 3.9807 44.7693C3.5507 30.8493 8.6807 16.4693 21.8507 9.44927C34.9607 2.45927 50.3907 1.72927 64.3707 6.72927C80.7107 12.5693 89.8007 30.1393 86.1007 47.0293C83.8407 57.3693 80.6607 67.4793 75.7907 76.8793C71.2607 85.6193 65.9507 94.8493 67.1407 104.629C68.1707 113.119 73.9007 120.149 78.6507 127.269C83.4107 134.379 87.4907 143.129 84.7807 151.249C84.2007 152.979 51.5307 151.249 48.0407 151.229C35.7507 151.179 23.4707 150.979 11.1807 150.819C9.5107 150.799 7.7807 150.789 6.2707 151.499C1.5507 153.719 4.0507 163.149 5.1607 166.899C9.6007 181.849 19.9107 190.889 34.5607 193.209C52.0907 195.979 76.0007 188.759 77.9907 164.289C78.0107 164.019 77.8907 163.759 77.8407 163.489" stroke="#005D36" stroke-width="7" stroke-linecap="round" stroke-linejoin="round"/>
<path d="M82.0806 18.8193H8.35059V25.6493H82.0806V18.8193Z" fill="#005D36"/>
<path d="M69.9308 31.9292H18.3108C17.7862 31.9292 17.3608 32.3545 17.3608 32.8792V37.6092C17.3608 38.1339 17.7862 38.5592 18.3108 38.5592H69.9308C70.4555 38.5592 70.8808 38.1339 70.8808 37.6092V32.8792C70.8808 32.3545 70.4555 31.9292 69.9308 31.9292Z" fill="#005D36"/>
<path d="M67.8605 69.8293H44.2405C43.7159 69.8293 43.2905 70.2547 43.2905 70.7793V75.8693C43.2905 76.394 43.7159 76.8193 44.2405 76.8193H67.8605C68.3852 76.8193 68.8105 76.394 68.8105 75.8693V70.7793C68.8105 70.2547 68.3852 69.8293 67.8605 69.8293Z" fill="#005D36"/>
<path d="M29.1968 96.075L5.156 102.404C4.64862 102.538 4.3456 103.058 4.47918 103.565L5.65544 108.033C5.78902 108.54 6.30862 108.843 6.816 108.71L30.8568 102.38C31.3641 102.247 31.6672 101.727 31.5336 101.22L30.3573 96.7518C30.2237 96.2444 29.7041 95.9414 29.1968 96.075Z" fill="#005D36"/>
<path d="M51.9021 102.408L65.9031 106.331C66.4083 106.472 66.9326 106.177 67.0741 105.672L68.3744 101.031C68.5159 100.526 68.2211 100.001 67.7159 99.8598L53.7149 95.9375C53.2097 95.7959 52.6854 96.0907 52.5439 96.596L51.2436 101.237C51.1021 101.742 51.3969 102.267 51.9021 102.408Z" fill="#005D36"/>
<path d="M84.6106 47.1492H1.64062V54.0392H84.6106V47.1492Z" fill="#005D36"/>
<path d="M72.2206 82.3594H1.64062V89.2294H72.2206V82.3594Z" fill="#005D36"/>
<path d="M38.1108 60.8493V104.069C38.1108 104.594 38.5362 105.019 39.0608 105.019H43.6408C44.1655 105.019 44.5908 104.594 44.5908 104.069V60.8493C44.5908 60.3246 44.1655 59.8993 43.6408 59.8993H39.0608C38.5362 59.8993 38.1108 60.3246 38.1108 60.8493Z" fill="#005D36"/>
<path d="M67.0976 105.55L3.37891 122.326L5.34698 129.801L69.0656 113.026L67.0976 105.55Z" fill="#005D36"/>
</svg>
